{"title":"Fargo 1996 REMASTERED BRRip XviD MP3 Idiocracy","uid":11743694,"size":889284867,"categoryP":"video","categoryS":"movies","magnet":"?xt=urn:btih:54628e2d01e091bdd5d1df967e67cb2e9b26d27a&amp;dn=Fargo+1996+REMASTERED+BRRip+XviD+MP3+Idiocracy&amp;tr=udp%3A%2F%2Ftracker.openbittorrent.com%3A80&amp;tr=udp%3A%2F%2Fopen.demonii.com%3A1337&amp;tr=udp%3A%2F%2Ftracker.coppersurfer.tk%3A6969&amp;tr=udp%3A%2F%2Fexodus.desync.com%3A6969","seeders":2,"leechers":0,"uploader":"Satafakap","files":3,"time":1425906266,"description":"Synopsis / Plot\n\nJerry Lundegaard's inept crime falls apart due to his and his henchmen's bungling and the persistent police work of the quite pregnant Marge Gunderson.\n\nDirectors: Joel Coen, Ethan Coen (uncredited)\nWriters: Ethan Coen, Joel Coen\nStars: William H. Macy, Frances McDormand, Steve Buscemi  \n &lt;a href=&quot;\nhttp://www.imdb.com/title/tt0116282/&quot; rel=&quot;nofollow&quot; target=&quot;_NEW&quot;&gt;\nhttp://www.imdb.com/title/tt0116282/&lt;/a&gt;\n\nGeneral\n\nComplete name         : Fargo.1996.REMASTERED.BRRip.XviD.MP3-Idiocracy.avi\nFormat                : AVI\nFormat/Info           : Audio Video Interleave\nFile size             : 843 MiB\nDuration              : 1h 38mn\nOverall bit rate      : 1 200 Kbps\nWriting application   : VirtualDubMod 1.5.10.3 | www.virtualdub-fr.org\nWriting library       : VirtualDubMod build 2550/release\nSource                : Fargo.1996.REMASTERED.1080p.BluRay.x264.anoXmous - Thanks!\nSample                : Yes\n\nVideo\n\nID                                       : 0\nFormat                                   : MPEG-4 Visual\nFormat profile                           : Advanced Simple@L5\nFormat settings, BVOP                    : 2\nFormat settings, QPel                    : No\nFormat settings, GMC                     : No warppoints\nFormat settings, Matrix                  : Default (H.263)\nCodec ID                                 : XVID\nCodec ID/Hint                            : XviD\nDuration                                 : 1h 38mn\nBit rate                                 : 1 063 Kbps\nWidth                                    : 640 pixels\nHeight                                   : 344 pixels\nDisplay aspect ratio                     : 1.85:1\nFrame rate                               : 23.976 fps\nColor space                              : YUV\nChroma subsampling                       : 4:2:0\nBit depth                                : 8 bits\nScan type                                : Progressive\nCompression mode                         : Lossy\nBits/(Pixel*Frame)                       : 0.201\nStream size                              : 747 MiB (89%)\nWriting library                          : XviD 1.2.1 (UTC 2008-12-04)\n\nAudio\n\nID                                       : 1\nFormat                                   : MPEG Audio\nFormat version                           : Version 1\nFormat profile                           : Layer 3\nCodec ID                                 : 55\nCodec ID/Hint                            : MP3\nDuration                                 : 1h 38mn\nBit rate mode                            : Constant\nBit rate                                 : 128 Kbps\nChannel(s)                               : 2 channels\nSampling rate                            : 48.0 KHz\nCompression mode                         : Lossy\nStream size                              : 89.9 MiB (11%)\nAlignment                                : Aligned on interleaves\nInterleave, duration                     : 42 ms (1.00 video frame)\nInterleave, preload duration             : 504 ms\nWriting library                          : LAME3.99r\nEncoding settings                        : -m s -V 4 -q 0 -lowpass 17 -b 128\n\nScreenshots:\n &lt;a href=&quot;\nhttp://i.imgur.com/zzrct4Q.jpg&quot; rel=&quot;nofollow&quot; target=&quot;_NEW&quot;&gt;\nhttp://i.imgur.com/zzrct4Q.jpg&lt;/a&gt;\n &lt;a href=&quot;\nhttp://i.imgur.com/lDm9d4i.jpg&quot; rel=&quot;nofollow&quot; target=&quot;_NEW&quot;&gt;\nhttp://i.imgur.com/lDm9d4i.jpg&lt;/a&gt;\n &lt;a href=&quot;\nhttp://i.imgur.com/doSZe07.jpg&quot; rel=&quot;nofollow&quot; target=&quot;_NEW&quot;&gt;\nhttp://i.imgur.com/doSZe07.jpg&lt;/a&gt;\n &lt;a href=&quot;\nhttp://i.imgur.com/F6sLmGk.jpg&quot; rel=&quot;nofollow&quot; target=&quot;_NEW&quot;&gt;\nhttp://i.imgur.com/F6sLmGk.jpg&lt;/a&gt;\n &lt;a href=&quot;\nhttp://i.imgur.com/twkqtn2.jpg&quot; rel=&quot;nofollow&quot; target=&quot;_NEW&quot;&gt;\nhttp://i.imgur.com/twkqtn2.jpg&lt;/a&gt;","torrent":{"xt":"urn:btih:54628e2d01e091bdd5d1df967e67cb2e9b26d27a","amp;dn":"Fargo+1996+REMASTERED+BRRip+XviD+MP3+Idiocracy","amp;tr":["udp%3A%2F%2Ftracker.openbittorrent.com%3A80","udp%3A%2F%2Fopen.demonii.com%3A1337","udp%3A%2F%2Ftracker.coppersurfer.tk%3A6969","udp%3A%2F%2Fexodus.desync.com%3A6969"],"infoHash":"54628e2d01e091bdd5d1df967e67cb2e9b26d27a","infoHashBuffer":{"type":"Buffer","data":[84,98,142,45,1,224,145,189,213,209,223,150,126,103,203,46,155,38,210,122]},"announce":[],"urlList":[]}}